<svg xmlns="http://www.w3.org/2000/svg" data-name="Layer 32" viewBox="0 0 64 64" id="hut-wood"><path d="M39.308 9.922 44.8 2.6a1 1 0 0 0-1.247-1.495L38.584 3.59l-.631-1.893a1 1 0 0 0-1.475-.55L32 3.833l-4.477-2.686a1 1 0 0 0-1.476.55l-.631 1.893-4.969-2.485A1 1 0 0 0 19.2 2.6l5.492 7.322L4.276 31.31a1 1 0 0 0 .941 1.667L9 32.136V62a1 1 0 0 0 1 1h44a1 1 0 0 0 1-1V32.031l3.758.939a1 1 0 0 0 .966-1.66ZM25.553 5.9a1 1 0 0 0 1.395-.579c.254-.76.452-1.354.605-1.824.384.237.855.519 1.432.865l2.5 1.5a1 1 0 0 0 1.03 0l2.5-1.5c.577-.346 1.048-.628 1.432-.865.153.47.351 1.064.6 1.824a1 1 0 0 0 1.4.579l2.211-1.106L37.5 9h-11l-3.158-4.211ZM40 48h5v3h-5Zm0 5h2v3h-2Zm0 5h5v3h-5Zm4-2v-3h4v3Zm6-3h3v3h-3Zm-3-2v-3h6v3Zm3-5v-3h3v3Zm-2 0h-4v-3h4Zm-6 0h-2.069a7.951 7.951 0 0 0-1.013-3H42Zm-4 1v14H26V47a6 6 0 0 1 12 0Zm-27 1h6v3h-6Zm13 0v3h-5v-3Zm0 8h-2v-3h2Zm-13-3h3v3h-3Zm5 0h4v3h-4Zm8 5v3h-5v-3Zm.069-12H22v-3h3.082a7.951 7.951 0 0 0-1.013 3ZM20 46h-4v-3h4Zm-6 0h-3v-3h3Zm-3 12h6v3h-6Zm36 3v-3h6v3Zm6-20H37.274a7.954 7.954 0 0 0-10.548 0H11v-9.309l2-.444V36a1 1 0 0 0 1.781.625l3.024-3.78 2.3 4.6a1.042 1.042 0 0 0 1.79 0L24 33.236l1.105 2.211a1 1 0 0 0 1.6.26l3.095-3.095 2.341 3.9a1.04 1.04 0 0 0 1.714 0l2.341-3.9 3.095 3.095a1 1 0 0 0 1.689-.507l.548-2.736 3.659 5.121A1 1 0 0 0 46 38a1 1 0 0 0 .99-.858l.658-4.611L49.2 34.6a1 1 0 0 0 1.77-.358l.758-3.029 1.272.318Zm-1.758-11.97a1 1 0 0 0-1.212.728l-.491 1.961L47.8 29.4a1 1 0 0 0-1.79.458l-.647 4.53-3.55-4.969a1 1 0 0 0-1.793.385l-.634 3.168-2.679-2.679a1 1 0 0 0-1.564.192L33 34.057l-2.143-3.572a1 1 0 0 0-.735-.477 1.014 1.014 0 0 0-.829.285l-3.019 3.019-1.374-2.759a1.042 1.042 0 0 0-1.79 0L21 34.764l-2.1-4.211a1 1 0 0 0-.79-.547A.924.924 0 0 0 18 30a1 1 0 0 0-.781.375L15 33.149V30a1 1 0 0 0-1.217-.977L8 30.31 26.428 11h11.144l18.32 19.192Z"></path></svg>